<!--?xml version="1.0" encoding="UTF-8"?-->
<svg width="320" height="320" viewBox="0 0 320 320" xmlns="http://www.w3.org/2000/svg">

  <!-- Outer Academic Seal -->
  <circle cx="160" cy="160" r="150" fill="#ffffff" stroke="#1e3a8a" stroke-width="6"></circle>

  <!-- Inner Ring -->
  <circle cx="160" cy="160" r="120" fill="none" stroke="#1e3a8a" stroke-width="2"></circle>

  <!-- Radial Grid Lines (Subtle Research Aesthetic) -->
  <line x1="160" y1="40" x2="160" y2="280" stroke="#cbd5e1" stroke-width="1"></line>
  <line x1="40" y1="160" x2="280" y2="160" stroke="#cbd5e1" stroke-width="1"></line>

  <!-- Central Hexagon (Structured Systems Engineering) -->
  <polygon points="
      160,105
      205,132
      205,188
      160,215
      115,188
      115,132" fill="#1e3a8a"></polygon>

  <!-- Central Core Node -->
  <circle cx="160" cy="160" r="10" fill="#ffffff"></circle>

  <!-- Sensor Nodes (Symmetric) -->
  <circle cx="160" cy="60" r="8" fill="#0f172a"></circle>
  <circle cx="260" cy="160" r="8" fill="#0f172a"></circle>
  <circle cx="160" cy="260" r="8" fill="#0f172a"></circle>
  <circle cx="60" cy="160" r="8" fill="#0f172a"></circle>

  <!-- Communication Links -->
  <line x1="160" y1="70" x2="160" y2="115" stroke="#1e3a8a" stroke-width="2"></line>
  <line x1="250" y1="160" x2="205" y2="160" stroke="#1e3a8a" stroke-width="2"></line>
  <line x1="160" y1="250" x2="160" y2="205" stroke="#1e3a8a" stroke-width="2"></line>
  <line x1="70" y1="160" x2="115" y2="160" stroke="#1e3a8a" stroke-width="2"></line>

  <!-- Signal Propagation Arcs -->
  <path d="M120 120 A60 60 0 0 1 200 120" fill="none" stroke="#64748b" stroke-width="2"></path>
  <path d="M120 200 A60 60 0 0 0 200 200" fill="none" stroke="#64748b" stroke-width="2"></path>

  <!-- Project Title (Upper Arc) -->
  <!--text x="160" y="28"
        text-anchor="middle"
        font-family="Georgia, serif"
        font-size="16"
        fill="#1e3a8a"
        letter-spacing="2">
        IOT SYSTEMS LAB
  </text-->

</svg>